<?xml version="1.0" standalone="no"?><!DOCTYPE svg PUBLIC "-//W3C//DTD SVG 1.1//EN" "http://www.w3.org/Graphics/SVG/1.1/DTD/svg11.dtd"><svg t="1652591604730" class="icon" viewBox="0 0 1024 1024" version="1.1" xmlns="http://www.w3.org/2000/svg" p-id="5122" xmlns:xlink="http://www.w3.org/1999/xlink" width="200" height="200"><defs><style type="text/css">@font-face { font-family: feedback-iconfont; src: url("//at.alicdn.com/t/font_1031158_u69w8yhxdu.woff2?t=1630033759944") format("woff2"), url("//at.alicdn.com/t/font_1031158_u69w8yhxdu.woff?t=1630033759944") format("woff"), url("//at.alicdn.com/t/font_1031158_u69w8yhxdu.ttf?t=1630033759944") format("truetype"); }
</style></defs><path d="M909.569024 574.027c-18.067456-23.183-72.7808-59.473-91.364352-106.86-18.582528-47.386-80.520192-77.224-92.90752-67.345 0 0-7.227392 3.833-18.582528 5.85-11.35104 2.019-124.859392-3.975-137.812992-4.887 0 0-60.855296-8.578-66.5856 25.56 0 0 21.681152 136.093-96.002048 172.386-117.686272 36.294-181.172224 7.563-181.172224 7.563s-23.227392 176.926 0 190.532c23.226368 13.612 71.230464-99.803 92.90752-130.047l61.94176 8.372c0 0-18.581504 126.211-7.744512 141.334 10.843136 15.121 65.488896 2.331 80.520192-127.023 0 0 154.850304 10.589 176.53248 9.071 0 0-12.899328 108.419 18.581504 105.855 18.577408-1.513 13.932544-80.143 20.127744-107.365 0 0 40.262656-6.049 61.93664-10.587 0 0-4.64384 108.873 9.28768 119.465 13.942784 10.584 83.623936-54.439 66.586624-270.684 0 0 6.193152-7.564 20.13184 28.73 13.934592 36.291 40.256512 102.48 83.616768 75.434C909.569024 639.383 927.630336 597.219 909.569024 574.027zM240.22528 582.865c16.99328 2.219 32.700416 3.836 46.90944 4.962 89.66656 12.212 138.10176-13.978 164.180992-43.928 7.95648-5.237 15.378432-13.406 21.588992-25.316 28.388352-54.438-7.747584-99.803-23.231488-119.799-0.254976-0.329-0.514048-0.627-0.771072-0.939-0.52736-11.891-1.101824-29.024-0.9216-44.265 26.978304-3.376 41.94816-18.156 41.94816-28.557 0-10.584-58.841088-46.771-58.841088-46.771 0-15.02-6.1952-46.982-21.677056-60.595-15.483904-13.611-23.230464 0-23.230464 0-3.099648 42.339-46.454784 57.464-92.908544 60.486-46.45376 3.026-52.644864-60.486-52.644864-60.486-37.941248 0.755-61.16864 71.83-61.16864 71.833-33.292288 0.758-67.431424 27.977-67.431424 27.977 16.183296 28.732 63.563776 45.366 63.563776 45.366 1.534976 0.236 3.325952 0.679 5.306368 1.259-4.790272 15.653-11.947008 36.381-20.206592 51.628-28.450816 10.384-55.668736 30.045-47.036416 78.666 11.55072 65.06 72.99072 81.446 94.067712 85.183C219.4432 582.405 230.577152 583.149 240.22528 582.865zM222.041088 524.62c-7.733248-9.094-15.466496-51.4 12.399616-43.452 20.492288 5.845 10.852352 30.675 4.310016 43.416C232.914944 526.479 227.26656 526.186 222.041088 524.62zM365.280256 377.947c0.533504 0.644 1.120256 1.216 1.754112 1.728-1.067008 6.484-2.412544 12.985-4.091904 18.557-6.66624-0.787-10.820608-2.138-10.820608-2.138C322.700288 388.532 349.023232 358.287 365.280256 377.947zM344.378368 481.168c15.318016-20.557 24.571904 0.649 27.77088 29.748-3.93728 8.921-10.933248 14.113-19.196928 16.88-0.809984-0.716-1.604608-1.274-2.376704-1.652C338.184192 520.095 328.890368 501.949 344.378368 481.168zM267.725824 396.097c-1.737728 2.669-11.931648 5.182-24.967168 7.365-2.080768-6.672-3.877888-14.984-3.666944-23.387 3.32288-0.037 6.4512-0.447 9.275392-1.366C269.272064 371.902 273.142784 387.78 267.725824 396.097z" p-id="5123"></path></svg>