<?xml version="1.0" standalone="no"?><!DOCTYPE svg PUBLIC "-//W3C//DTD SVG 1.1//EN" "http://www.w3.org/Graphics/SVG/1.1/DTD/svg11.dtd"><svg t="1652591909177" class="icon" viewBox="0 0 1024 1024" version="1.1" xmlns="http://www.w3.org/2000/svg" p-id="9800" xmlns:xlink="http://www.w3.org/1999/xlink" width="200" height="200"><defs><style type="text/css">@font-face { font-family: feedback-iconfont; src: url("//at.alicdn.com/t/font_1031158_u69w8yhxdu.woff2?t=1630033759944") format("woff2"), url("//at.alicdn.com/t/font_1031158_u69w8yhxdu.woff?t=1630033759944") format("woff"), url("//at.alicdn.com/t/font_1031158_u69w8yhxdu.ttf?t=1630033759944") format("truetype"); }
</style></defs><path d="M557.76256 690.785c-10.3424 23.568-3.444736 38.678 11.200512 41.644 14.652416 2.966 49.122304-34.067 26.71616-72.783C595.678208 659.646 568.102912 667.219 557.76256 690.785zM915.99872 463.266c-17.80736-33.093-31.60064-5.045-33.893376-2.237 0 0-5.752832 12.905 10.336256 7.295 16.099328-5.607 10.341376 23.568-6.894592 24.13 0 0-2.287616-21.323-37.34016-49.941-35.055616-28.618-87.912448-44.338-152.83712-45.458-64.939008-1.123-133.306368-0.004-133.306368-0.004s-22.407168 40.4 0 63.965c22.41024 23.564 49.988608 72.4 49.988608 121.211 0 48.808-3.44576 134.654 12.066816 143.076 15.521792 8.41 37.927936 26.926 68.954112-70.708l53.431296 3.365c0 0 0 67.343 34.47808 63.966 34.476032-3.365 10.338304-43.761 18.958336-67.331 8.620032-23.561 12.073984 43.766 13.789184 53.868 1.728512 10.094 29.300736 15.904 39.647232-7.194 10.3424-23.107-6.87104-61.375 31.025152-119.042 11.491328-17.481 8.040448-64.526 4.588544-74.626C888.99072 507.602 933.810176 496.372 915.99872 463.266zM593.093632 604.098c20.6848-101.001-53.43744-154.865-53.43744-154.865-10.343424-127.931-65.503232-144.758-65.503232-144.758 3.453952-23.007 2.29888-53.306-18.394112-57.79-20.680704-4.495-51.70176 42.081-51.70176 42.081l-140.762112-2.242c-7.469056-26.938-21.839872-25.249-21.839872-25.249-36.191232-5.615-22.41024 57.228-22.41024 57.228l0.525312 0.051c0.315392 6.191 1.33632 13.078 3.426304 20.593-34.962432 47.617-24.814592 139.52-43.583488 158.908-20.10624 20.768-81.599488 66.435-75.27424 106.046 7.077888 44.328 38.537216 69.244 57.201664 80.373 27.053056 24.371 70.745088 47.756 141.308928 59.574 68.815872 11.531 116.867072 3.522 150.571008-11.918C510.111744 715.002 577.9456 678.054 593.093632 604.098zM429.63968 613.339c-3.422208-1.204-7.160832-2.937-11.020288-5.432-3.76832-12.963-6.37952-49.6 14.17216-43.413C475.454464 577.351 441.567232 604.868 429.63968 613.339zM423.017472 371.252c7.467008 0 12.445696 9.959 15.766528 23.4-2.255872 13.503-7.467008 26.518-19.213312 25.971-5.074944-0.238-9.053184-5.226-12.178432-12.939 0.294912-0.343 0.350208-0.705 0.108544-1.089C402.907136 399.296 400.031744 371.252 423.017472 371.252zM307.530752 367.879c7.286784 2.911 8.654848 17.574 8.507392 29.47-8.58112 25.091-20.332544 42.283-32.295936 6.411C282.857472 380.223 296.128512 363.321 307.530752 367.879zM256.318464 627.611c-9.592832-17.593-19.859456-59.36 12.729344-56.62 33.325056 2.812 18.376704 37.037 18.376704 37.037l0.277504 0.003C279.643136 619.691 269.02528 629.22 256.318464 627.611z" p-id="9801"></path></svg>