<?xml version="1.0" standalone="no"?><!DOCTYPE svg PUBLIC "-//W3C//DTD SVG 1.1//EN" "http://www.w3.org/Graphics/SVG/1.1/DTD/svg11.dtd"><svg t="1652591843478" class="icon" viewBox="0 0 1024 1024" version="1.1" xmlns="http://www.w3.org/2000/svg" p-id="8821" xmlns:xlink="http://www.w3.org/1999/xlink" width="200" height="200"><defs><style type="text/css">@font-face { font-family: feedback-iconfont; src: url("//at.alicdn.com/t/font_1031158_u69w8yhxdu.woff2?t=1630033759944") format("woff2"), url("//at.alicdn.com/t/font_1031158_u69w8yhxdu.woff?t=1630033759944") format("woff"), url("//at.alicdn.com/t/font_1031158_u69w8yhxdu.ttf?t=1630033759944") format("truetype"); }
</style></defs><path d="M232.291 572.445c14.492-3.537 27.5-18.198 37.131-32.535 5.842-7.679 27.414-38.336 47.007-66.329 1.492-1.823 3.038-3.754 4.643-5.824 12.389-15.964 22.445-30.879 30.61-44.688 0 0 0.004-0.005 0.004-0.005v0c43.212-73.073 33.264-114.965 33.264-114.965 60.633-23.263 42.228-68.733 42.228-68.733h-74.71c0 0-20.572-12.686-30.323-15.858-9.732-3.179-9.732-33.844-9.732-61.867 0-28.018-18.411-17.445-18.411-17.445-15.165 19.029-54.141 57.094-54.141 57.094h-50.89c-5.41-72.959-22.739-79.309-22.739-79.309-38.97 13.753-45.479 93.066-45.479 93.066s-10.83 54.994-23.826 48.641c-12.986-6.343-85.536-23.259-89.862 10.58-3.903 30.466 45.748 54.071 55.673 58.47 14.479 57.31 45.404 95.762 73.181 163.573 32.489 79.302 66.052 83.534 96.374 76.134zM218.337 521.687c-59.505-31.033-0.841-43.394 9.262-45.225 12.303 4.35 19.201 9.478 22.761 14.588-1.168 1.236-2.161 2.955-2.915 5.266-7.575 23.264-29.106 25.372-29.106 25.372zM279.788 329.249c19.357-7.41 21.792 20.085 21.792 20.085-0.426 3.628-2.080 11.234-4.302 21.158-11.674 8.466-20.382 7.949-26.864 2.803-7.18-11.197-6.751-37.886 9.375-44.048zM154.313 338.766c11.599-21.778 25.397 2.358 29.903 11.549-2.788 20.788-12.566 19.108-12.566 19.108-4.75 1.071-9.119 1.696-13.164 1.961-7.181-5.847-13.12-15.809-4.172-32.617zM164.435 575.883c1.444 14.708 5.779 87.246 49.813 86.796 48.894-0.49 49.808-87.705 49.808-87.705-47.648 47.653-99.621 0.909-99.621 0.909zM1029.206 538.607c0 0-8.658-56.041-100.697-78.253-92.036-22.202-162.418 23.267-273.945 5.287 0.003 0.003-140.753-1.055-249.029-87.763 0 0-40.070 94.106-76.882 122.657 0 0 46.556 47.585 46.556 66.615 0 19.035 7.581 115.257-36.817 192.459-44.388 77.187-63.875 167.069-57.383 180.81 0 0 61.717 19.037 163.502-194.563 0 0 259.875 5.286 321.585-35.95 0 0 126.689 95.173 131.020 111.025 4.329 15.865-17.329 61.333-21.659 89.886-4.329 28.545-1.087 82.473 51.969 35.948 53.053-46.524 61.726-101.515 63.886-113.138 2.167-11.643 1.081-71.905-35.732-150.155s24.902-139.577 73.625-144.865zM452.103 946.759l12.985 11.632c20.572-12.687 63.885-194.558 63.885-194.558h-70.38l-6.487 182.926zM757.446 736.341v228.64c0 0 41.141-17.152 48.718-71.084 7.588-53.929 21.652-87.761 36.822-88.816-0.004-0.001-42.237-66.628-85.539-68.74z" p-id="8822"></path></svg>