<?xml version="1.0" standalone="no"?><!DOCTYPE svg PUBLIC "-//W3C//DTD SVG 1.1//EN" "http://www.w3.org/Graphics/SVG/1.1/DTD/svg11.dtd"><svg t="1652591624805" class="icon" viewBox="0 0 1024 1024" version="1.1" xmlns="http://www.w3.org/2000/svg" p-id="5325" xmlns:xlink="http://www.w3.org/1999/xlink" width="200" height="200"><defs><style type="text/css">@font-face { font-family: feedback-iconfont; src: url("//at.alicdn.com/t/font_1031158_u69w8yhxdu.woff2?t=1630033759944") format("woff2"), url("//at.alicdn.com/t/font_1031158_u69w8yhxdu.woff?t=1630033759944") format("woff"), url("//at.alicdn.com/t/font_1031158_u69w8yhxdu.ttf?t=1630033759944") format("truetype"); }
</style></defs><path d="M199.640064 644.555l140.198912-141.026c0 0 57.485312 26.014 61.692928 49.292 4.205568 23.275 47.670272 76.677 51.872768 8.213l7.0144-21.906-28.04224 9.98c0 0-49.260544-44.842 1.40288-59.271 33.651712-9.586 49.77664 41.078 57.485312 49.291 7.713792 8.218-19.62496 28.752-19.62496 28.752s-13.389824 28.752 20.996096 17.8c34.381824-10.954 74.010624-37.189 31.58016-102.691-5.453824-8.417-10.448896-15.232-15.015936-20.719-9.831424-19.551-28.941312-52.95-53.332992-73.071-11.30496-9.324-24.6016-18.413-39.406592-26.164 12.616704-4.663 26.153984-9.354 36.004864-11.946 24.302592-6.391 10.289152-29.207-24.297472-33.772-22.46144-2.965-41.3696 16.014-51.869696 29.688-23.02976-6.41-48.082944-8.667-73.955328-4.021-60.987392 10.958-114.972672 62.303-141.96224 109.882s-49.77664 123.915-33.304576 186.557c16.479232 62.64 22.08768 53.057 16.479232 62.64 0 0-56.088576 15.063-14.01856 56.141 0 0 19.628032-52.031 23.8336 12.321 0 0 44.864512-47.919 47.673344-6.845 0 0 40.659968-19.168 56.078336-16.431C257.120256 747.247 205.24544 703.432 199.640064 644.555zM449.905664 428.562c0-0.671 9.742336 12.705 16.487424 22.046 0.11264 1.553 1.02912 16.44-5.622784 12.868-7.012352-3.769-11.213824-7.874-11.213824-7.874S449.905664 429.586 449.905664 428.562zM143.084544 702.864c-0.006144 0.01-0.013312 0.022-0.019456 0.032C143.072256 702.886 143.0784 702.875 143.084544 702.864zM142.537728 703.799c-0.545792 0.935-0.915456 1.565-1.147904 1.963C141.683712 705.26 142.127104 704.502 142.537728 703.799zM141.295616 705.924c-0.068608 0.116-0.11776 0.201-0.154624 0.265C141.17888 706.122 141.232128 706.03 141.295616 705.924zM304.784384 555.523c0 0 67.298304 96.787 86.001664 123.265l0 11.867c0 0-32.719872-10.868-37.39648 8.257-4.66944 19.126-6.54336 37.386 5.61152 40.122l23.369728-20.996 8.414208 27.383 26.165248-23.732 15.890432 10.039c0 0 51.4048-22.817 55.148544-37.425L339.371008 519.045 304.784384 555.523zM557.157376 513.573c0.930816 23.728-27.10528 71.101-27.097088 71.097-71.335936 15.315-61.693952 73.119-61.693952 73.119l19.631104-5.956 5.6064 17.824 27.111424-22.822 13.08672 12.782 23.359488-11.867 0-32.856c42.064896-12.778 47.674368-59.37 47.674368-59.37l40.189952-51.083C596.415488 489.836 557.157376 513.573 557.157376 513.573zM923.568128 624.928c-5.605376-31.947-29.912064-91.277-32.714752-118.663-2.802688-27.383-71.977984-57.509-67.299328 0 0 0-26.167296-72.246-51.407872-83.133-25.237504-10.886-130.86208-43.746-176.6656-43.746-45.796352 0 89.732096-78.235 160.769024-48.703 71.04 29.532 71.04 63.174 34.5856 92.449l29.90592 32.013c0 0 67.308544-63.627 26.18368-124.462-41.131008-60.838-132.732928-51.708-208.447488-27.062-75.712512 24.646-80.384 51.118-91.599872 62.068l-75.712512-5.474c0 0.006 48.136192 37.886 79.45728 128.709 0 0 134.58944-7.679 169.177088 10.762 34.581504 18.448 85.984256 75.042 81.316864 105.162 0 0-80.375808 24.645-34.58048 74.851 0 0 0.939008-28.336 22.43072-27.862 0 0 2.453504 28.777 12.450816 36.991 0 0 16.523264-29.211 27.741184-30.126 0 0 5.605376 34.687 14.956544 34.687 0 0 3.741696-27.382 17.762304-27.382C875.900928 666.007 929.1776 656.878 923.568128 624.928zM181.400576 396.386c0 0-34.886656-0.949-39.25504-51.211-4.205568-48.397 1.40288-56.611 25.239552-59.348 0 0 16.822272 6.846 12.616704 41.075-4.204544 34.232 78.523392-18.901 49.074176-56.005-29.442048-37.101-100.94592-59.009-119.17824 27.251C91.672576 384.407 122.520576 467.246 181.400576 396.386z" p-id="5326"></path></svg>